<?xml version="1.0" encoding="utf-8"?>
<!-- Generator: Adobe Illustrator 18.0.0, SVG Export Plug-In . SVG Version: 6.00 Build 0)  -->
<svg version="1.2" baseProfile="tiny" id="Layer_1"
	xmlns="http://www.w3.org/2000/svg"
	xmlns:xlink="http://www.w3.org/1999/xlink" x="0px" y="0px" viewBox="0 0 82 96" xml:space="preserve">
	<g display="none">
		<text transform="matrix(1 0 0 1 91.2 67.3525)" display="inline" fill="#14143E" font-family="'MyriadPro-BoldCond'" font-size="72">a</text>

		<text transform="matrix(1 0 0 1 121.5838 67.3525)" display="inline" fill="#14143E" font-family="'MyriadPro-BoldCond'" font-size="72">n</text>

		<text transform="matrix(1 0 0 1 153.8397 67.3525)" display="inline" fill="#14143E" font-family="'MyriadPro-BoldCond'" font-size="72">v</text>

		<text transform="matrix(1 0 0 1 182.2791 67.3525)" display="inline" fill="#14143E" font-family="'MyriadPro-BoldCond'" font-size="72">i</text>

		<text transform="matrix(1 0 0 1 198.3338 67.3525)" display="inline" fill="#14143E" font-family="'MyriadPro-BoldCond'" font-size="72">l</text>

		<text transform="matrix(1 0 0 1 214.534 67.3525)" display="inline" fill="#14143E" font-family="'MyriadPro-BoldCond'" font-size="72">a</text>

		<text transform="matrix(1 0 0 1 244.1981 67.3525)" display="inline" fill="#14143E" font-family="'MyriadPro-BoldCond'" font-size="72">t</text>

		<text transform="matrix(1 0 0 1 266.5887 67.3525)" display="inline" fill="#14143E" font-family="'MyriadPro-BoldCond'" font-size="72">i</text>

		<text transform="matrix(1 0 0 1 282.6443 67.3525)" display="inline" fill="#14143E" font-family="'MyriadPro-BoldCond'" font-size="72">o</text>

		<text transform="matrix(1 0 0 1 313.6766 67.3525)" display="inline" fill="#14143E" font-family="'MyriadPro-BoldCond'" font-size="72">n</text>
	</g>
	<g>
		<circle fill="#FFFFFF" stroke="#3CC0C6" stroke-width="5.6" stroke-miterlimit="10" cx="34" cy="34.7" r="30.5"/>
		<circle fill="#FFFFFF" stroke="#14143E" stroke-width="5.6" stroke-miterlimit="10" cx="34" cy="34.8" r="26"/>
		<circle fill="#14143E" stroke="#FFFFFF" stroke-width="0.4" stroke-miterlimit="10" cx="34" cy="34.8" r="20.8"/>
		<g>
			<path fill="#FFFFFF" stroke="#14143E" stroke-width="2" stroke-miterlimit="10" d="M51,17.8l-15.7,3.8v7.9
			C47.5,27.8,51,17.8,51,17.8z"/>
			<path fill="#FFFFFF" stroke="#14143E" stroke-width="2" stroke-miterlimit="10" d="M34.5,31.1V20.5l-16.7,4.3v5.1
			c0,0,11.3,4.8,4.8,17v3.2l17.3,3.4v-4.3C39.9,49.2,29.6,40.5,34.5,31.1z"/>
		</g>
	</g>
</svg>
