<?xml version="1.0" encoding="utf-8"?>
<!-- Generator: Adobe Illustrator 18.0.0, SVG Export Plug-In . SVG Version: 6.00 Build 0)  -->
<!DOCTYPE svg PUBLIC "-//W3C//DTD SVG 1.1//EN" "http://www.w3.org/Graphics/SVG/1.1/DTD/svg11.dtd">
<svg version="1.1" xmlns="http://www.w3.org/2000/svg" xmlns:xlink="http://www.w3.org/1999/xlink" x="0px" y="0px"
	 viewBox="0 0 200 250" enable-background="new 0 0 200 250" xml:space="preserve">
<g id="Layer_1">
</g>
<g id="Layer_2">
	<polygon fill="#DD4798" points="12.9,152.6 12.9,102 56.6,76.7 100.4,102 100.4,152.6 56.6,177.8 	"/>
	<polygon fill="#DD4798" points="99.3,152.3 99.3,101.7 143,76.4 186.8,101.7 186.8,152.3 143,177.5 	"/>
	<polygon fill="#DD4798" points="12.9,102.4 12.9,51.8 56.6,26.6 100.4,51.8 100.4,102.4 56.6,127.7 	"/>
	<polygon fill="#DD4798" points="55.5,77.4 55.5,26.9 99.3,1.6 143,26.9 143,77.4 99.3,102.7 	"/>
	<polygon fill="#DD4798" points="99.3,102.4 99.3,51.8 143,26.6 186.8,51.8 186.8,102.4 143,127.7 	"/>
	<polygon fill="#EDB5D2" stroke="#FFFFFF" stroke-width="0.7324" stroke-miterlimit="10" points="56.6,128.2 56.6,77.6 100.4,52.3 
		144.2,77.6 144.2,128.2 100.4,153.4 	"/>
	<polygon fill="#231F20" points="112,104.8 112,99.7 116.4,97.2 120.8,99.7 120.8,104.8 116.4,107.3 	"/>
	<polygon fill="#231F20" points="80,104.8 80,99.7 84.4,97.2 88.8,99.7 88.8,104.8 84.4,107.3 	"/>
</g>
<g id="Layer_3">
	<polygon fill="#DD4798" points="56.6,228.4 12.9,202.9 12.9,152.6 56.9,152.6 	"/>
</g>
</svg>
